# xmcd CD database file
#
# Track frame offsets:
#	150
#	16772
#	33655
#	48790
#	63325
#	75635
#	90617
#	107847
#	120220
#	134950
#
# Disc length: 2138 seconds
#
# Revision: 2
# Processed by: cddbd v1.4PL0 Copyright (c) Steve Scherf et al.
# Submitted via: CDex 1.40Release
#
DISCID=7a08580a
DTITLE=Wade Hayes - Highways and Heartaches
DYEAR=2000
DGENRE=Country
TTITLE0=Up North (Down South, Back East, Out West)
TTITLE1=Life After Lovin' You
TTITLE2=Goodbye Is The Wrong Way To Go
TTITLE3=What's It Gonna Take
TTITLE4=She Used To Say That To Me
TTITLE5=Up And Down
TTITLE6=You Just Keep On
TTITLE7=That's What Honky Tonks Are For
TTITLE8=You Were, You Are, You'll Always Be
TTITLE9=I'm Lonesome Too
EXTD=2000 Sony Music YEAR: 2000 ID3G: 2
EXTT0=
EXTT1=
EXTT2=
EXTT3=
EXTT4=
EXTT5=
EXTT6=
EXTT7=
EXTT8=
EXTT9=
PLAYORDER=
